HIERARCHY
ROOT Hips
{
  OFFSET -102.467 93.6631 130.069
  CHANNELS 6 Xposition Yposition Zposition Zrotation Xrotation Yrotation
  JOINT LeftUpLeg
  {
    OFFSET 8.64259 1.95398 -2.38835
    CHANNELS 3 Zrotation Xrotation Yrotation
    JOINT LeftLeg
    {
      OFFSET 43.7702 0 0
      CHANNELS 3 Zrotation Xrotation Yrotation
      JOINT LeftFoot
      {
        OFFSET 40.6238 0 0
        CHANNELS 3 Zrotation Xrotation Yrotation
        JOINT LeftToeBase
        {
          OFFSET 12.7242 0 0
          CHANNELS 3 Zrotation Xrotation Yrotation
          End Site
          {
            OFFSET 0 0 0
          }
        }
      }
    }
  }
  JOINT RightUpLeg
  {
    OFFSET -8.2249 1.95398 -2.59336
    CHANNELS 3 Zrotation Xrotation Yrotation
    JOINT RightLeg
    {
      OFFSET 43.5653 0 0
      CHANNELS 3 Zrotation Xrotation Yrotation
      JOINT RightFoot
      {
        OFFSET 40.6238 0 0
        CHANNELS 3 Zrotation Xrotation Yrotation
        JOINT RightToeBase
        {
          OFFSET 12.7242 0 0
          CHANNELS 3 Zrotation Xrotation Yrotation
          End Site
          {
            OFFSET 0 0 0
          }
        }
      }
    }
  }
  JOINT Spine
  {
    OFFSET 0.165834 0.87714 6.61349
    CHANNELS 3 Zrotation Xrotation Yrotation
    JOINT Spine1
    {
      OFFSET 7.38963 1.71661e-005 0
      CHANNELS 3 Zrotation Xrotation Yrotation
      JOINT Spine2
      {
        OFFSET 11.9445 1.14441e-005 0
        CHANNELS 3 Zrotation Xrotation Yrotation
        JOINT Spine3
        {
          OFFSET 14.7254 4.19617e-005 0
          CHANNELS 3 Zrotation Xrotation Yrotation
          JOINT Spine4
          {
            OFFSET 10.9679 0 0
            CHANNELS 3 Zrotation Xrotation Yrotation
            JOINT RightShoulder
            {
              OFFSET 2.46616 -1.6653 3.69651
              CHANNELS 3 Zrotation Xrotation Yrotation
              JOINT RightArm
              {
                OFFSET 13.0012 0 0
                CHANNELS 3 Zrotation Xrotation Yrotation
                JOINT RightForeArm
                {
                  OFFSET 28.7848 1.52588e-005 0
                  CHANNELS 3 Zrotation Xrotation Yrotation
                  JOINT RightHand
                  {
                    OFFSET 26.5688 1.52588e-005 0
                    CHANNELS 3 Zrotation Xrotation Yrotation
                    End Site
                    {
                      OFFSET 0 0 0
                    }
                  }
                }
              }
            }
            JOINT LeftShoulder
            {
              OFFSET 2.38034 -1.29275 -3.7523
              CHANNELS 3 Zrotation Xrotation Yrotation
              JOINT LeftArm
              {
                OFFSET 16.3182 6.10351e-005 0
                CHANNELS 3 Zrotation Xrotation Yrotation
                JOINT LeftForeArm
                {
                  OFFSET 27.0901 0 0
                  CHANNELS 3 Zrotation Xrotation Yrotation
                  JOINT LeftHand
                  {
                    OFFSET 24.5451 1.52588e-005 0
                    CHANNELS 3 Zrotation Xrotation Yrotation
                    End Site
                    {
                      OFFSET 0 0 0
                    }
                  }
                }
              }
            }
            JOINT Neck
            {
              OFFSET 5.0226 -0.0266342 0
              CHANNELS 3 Zrotation Xrotation Yrotation
              JOINT Head
              {
                OFFSET 6.69363 2.86102e-005 0
                CHANNELS 3 Zrotation Xrotation Yrotation
                End Site
                {
                  OFFSET 0 0 0
                }
              }
            }
          }
        }
      }
    }
  }
}
MOTION
Frames:	19
Frame Time:	0.0416667
272.322 85.1213 -276.297 153.332 -5.83876 -175.624 -161.173 41.3035 -165.139 101.883 14.5503 164.127 38.7907 -18.6132 14.87 -134.497 -33.0299 20.5488 146.956 -41.294 52.3179 -25.3722 -49.6039 31.838 35.4939 13.8277 -10.1452 -31.4272 -30.0739 101.337 -5.43849 12.9899 -87.6674 1.01343 -9.97097 4.18895 -10.6272 -9.77707 4.62678 -33.4672 -10.7641 0.966888 -13.4545 -10.7641 0.966904 118.204 -26.344 -47.8164 55.259 5.45143 -15.0519 -2.40971 72.9318 -0.00185718 5.77963 0.393635 2.43374 -76.4203 -55.1568 98.9195 -18.5559 9.42222 82.3275 29.4528 9.41215 -105.487 -19.339 -8.99868 50.7879 -88.1372 6.09006 -11.6938 33.0035 19.5739 55.9133 
272.529 85.0963 -276.491 153.318 -5.63914 -175.595 -161.823 41.248 -164.612 101.998 15.2686 163.871 39.0391 -18.57 14.8841 -133.361 -36.0358 21.639 147.109 -41.3376 52.263 -25.9755 -49.5151 32.0368 35.4998 13.7299 -10.0539 -32.3561 -30.082 100.037 -5.44202 13.013 -87.6587 0.967356 -9.97525 4.19927 -10.6732 -9.7809 4.63729 -33.5134 -10.7713 0.975426 -13.5007 -10.7713 0.975428 118.258 -26.6185 -47.857 54.9654 5.43894 -14.9144 -2.3208 73.4337 -0.0019118 5.72953 0.4105 2.79589 -76.2109 -54.8623 99.2271 -18.6759 9.51608 82.0485 29.7948 9.47616 -105.554 -19.2321 -8.95829 50.8749 -88.0829 6.08504 -11.6716 32.9612 19.5969 56.0056 
273.126 85.0229 -277.055 153.269 -5.06245 -175.512 -163.697 41.0719 -163.113 102.414 17.3794 163.09 39.7906 -18.4335 14.8886 -128.964 -45.0627 25.8534 147.542 -41.4867 52.1214 -27.742 -49.2577 32.5495 35.5171 13.4723 -9.75833 -34.9707 -29.9411 96.2832 -5.45235 13.0798 -87.6337 0.833767 -9.98809 4.22899 -10.8068 -9.79242 4.66754 -33.6476 -10.7924 0.999807 -13.6349 -10.7925 0.999819 118.413 -27.4203 -47.9773 54.1052 5.39576 -14.4925 -2.059 74.8429 -0.00208478 5.56234 0.452217 3.77643 -75.6196 -54.0084 100.107 -19.0204 9.78469 81.232 30.8038 9.65736 -105.755 -18.9238 -8.83931 51.1178 -87.9231 6.07084 -11.607 32.8388 19.6632 56.2734 
274.079 84.8999 -277.959 153.184 -4.14549 -175.379 -166.668 40.7509 -160.821 103.319 20.7564 161.704 41.1001 -18.2506 14.831 -115.664 -59.4445 38.6686 148.2 -41.7926 51.9505 -30.6167 -48.8403 33.1715 35.5495 13.1408 -9.19128 -38.8384 -29.2557 90.3855 -5.46947 13.1865 -87.5938 0.620194 -10.0099 4.27594 -11.0204 -9.81212 4.7154 -33.8622 -10.8273 1.03788 -13.8495 -10.8273 1.03788 118.658 -28.7181 -48.1763 52.7061 5.30718 -13.7387 -1.63447 76.9712 -0.00241794 5.23309 0.497007 5.14293 -74.721 -52.6479 101.48 -19.5565 10.2035 79.9074 32.4717 9.93063 -106.106 -18.439 -8.64531 51.4785 -87.6625 6.04956 -11.5031 32.643 19.7683 56.7016 
275.35 84.7216 -279.177 153.057 -2.92757 -175.198 -170.588 40.2705 -157.934 105.645 26.6531 159.275 42.6782 -16.9395 13.4759 -67.2545 -71.2906 85.9901 149.025 -42.321 51.8275 -34.5706 -48.2391 33.6406 35.6168 12.8375 -8.25904 -43.3027 -27.582 82.8026 -5.49345 13.3294 -87.5409 0.334376 -10.0414 4.3378 -11.3062 -9.84088 4.77857 -34.1495 -10.8759 1.08714 -14.1369 -10.8759 1.08715 118.98 -30.4824 -48.4549 50.7944 5.15449 -12.5596 -1.07145 79.6426 -0.00303191 4.69665 0.519202 6.64592 -73.6036 -50.8446 103.256 -20.2429 10.7383 78.101 34.8095 10.2583 -106.632 -17.8135 -8.38269 51.9024 -87.3047 6.02426 -11.3622 32.3801 19.9077 57.275 
276.9 84.4785 -280.681 152.883 -1.44749 -174.974 -175.318 39.6422 -154.679 109.048 32.3757 155.769 45.0382 -16.4281 12.3758 -9.46734 -59.198 141.716 149.958 -43.1359 51.8337 -39.6149 -47.3529 33.6889 35.7644 12.6447 -6.85877 -47.593 -24.5695 74.0625 -5.5245 13.5045 -87.4763 -0.0162273 -10.0835 4.41214 -11.6567 -9.87972 4.8547 -34.5021 -10.9384 1.14505 -14.4895 -10.9384 1.14505 119.363 -32.6843 -48.8173 48.4032 4.92253 -10.8165 0.396529 82.7326 -0.825578 3.92685 0.497949 8.09159 -72.3596 -48.6728 105.335 -21.034 11.3399 75.8387 37.8333 10.5885 -107.364 -17.0989 -8.06479 52.3186 -86.8524 5.99851 -11.1867 32.0555 20.0766 57.9787 
278.691 84.1573 -282.443 152.653 0.256349 -174.707 179.277 38.925 -151.265 114.624 38.4204 150.503 47.8059 -15.9139 10.5379 8.30995 -37.0884 156.09 150.949 -44.2988 52.044 -45.8366 -45.9033 33.043 36.0646 12.5984 -4.84879 -51.0218 -20.0709 64.5572 -5.56281 13.7084 -87.4019 -0.424332 -10.1372 4.49651 -12.0648 -9.92969 4.94137 -34.9129 -11.0149 1.20891 -14.9002 -11.0149 1.20891 119.787 -35.2904 -49.2696 45.5834 4.61007 -8.31492 36.4296 85.0423 -36.2835 2.91471 0.420398 9.35402 -71.0728 -46.2209 107.622 -21.8846 11.9453 73.1523 41.5515 10.852 -108.329 -16.3699 -7.71696 52.6336 -86.308 5.97623 -10.9785 31.6743 20.2701 58.7978 
280.682 83.742 -284.438 152.36 2.14602 -174.396 173.307 38.2335 -147.875 123.022 43.7814 142.958 50.7583 -15.5236 7.92012 15.79 -17.0751 158.62 151.963 -45.8791 52.5141 -53.535 -43.1286 31.3617 36.6034 12.631 -1.88932 -53.2516 -14.1475 54.3 -5.6085 13.9374 -87.3192 -0.883029 -10.2034 4.58825 -12.5233 -9.9917 5.03595 -35.3749 -11.1054 1.27596 -15.3623 -11.1054 1.27598 120.231 -38.2582 -49.8172 42.4149 4.2499 -4.78566 86.1353 80.7453 -85.3266 1.65686 0.281255 10.3619 -69.8113 -43.5925 110.028 -22.7535 12.479 70.0846 45.9472 10.9596 -109.539 -15.734 -7.38203 52.725 -85.6737 5.9617 -10.7393 31.2417 20.4834 59.717 
282.841 83.2169 -286.635 151.997 4.18604 -174.039 166.845 37.7256 -144.637 134.268 47.2718 133.213 53.6199 -15.3638 4.64086 20.5806 -1.62935 157.05 153.045 -47.9705 53.3059 -63.6014 -36.7706 28.1053 37.356 12.456 3.24894 -54.5872 -6.72512 42.5641 -5.66154 14.1884 -87.2298 -1.38591 -10.2824 4.68471 -13.0259 -10.0664 5.13583 -35.8819 -11.2096 1.3435 -15.8692 -11.2096 1.34351 120.667 -41.5344 -50.4666 39.0052 3.93598 0.111385 99.6349 72.8784 -97.8781 0.143423 0.0808168 11.0774 -68.6236 -40.8939 112.476 -23.6113 12.8584 66.6868 50.959 10.8066 -110.973 -15.3314 -7.11981 52.443 -84.952 5.95893 -10.4709 30.763 20.712 60.721 
285.144 82.5709 -289.008 151.558 6.34524 -173.632 159.922 37.5624 -141.599 147.119 48.027 122.629 56.1223 -15.4742 0.87449 24.3716 9.13214 153.636 154.596 -50.7926 54.7568 -77.7357 -20.1955 23.0748 37.4028 11.9147 15.1954 -55.9829 3.64373 26.6674 -5.72181 14.4587 -87.1353 -1.9275 -10.3744 4.78329 -13.5672 -10.1541 5.23839 -36.4284 -11.3269 1.40899 -16.4157 -11.3269 1.40899 121.063 -45.0565 -51.2277 35.4564 3.83378 6.74129 103.58 62.8789 -100.451 -1.64556 -0.176793 11.4728 -67.5374 -38.2205 114.903 -24.4458 13.0049 63.0161 56.4728 10.2805 -112.57 -15.3226 -6.99531 51.6203 -84.1453 5.97146 -10.1751 30.2431 20.9515 61.7954 
287.581 81.8288 -291.503 151.035 8.59568 -173.166 152.578 37.8712 -138.72 159.507 45.9733 113.485 58.0227 -15.8291 -3.31684 27.4198 15.8436 149.582 157.417 -55.4896 58.0494 -96.5979 17.0666 20.5035 27.7531 10.4806 42.0855 -51.8121 19.5847 0.549717 -5.78894 14.7457 -87.0371 -2.50306 -10.4792 4.88141 -14.1423 -10.2545 5.3411 -37.0096 -11.4562 1.47008 -16.997 -11.4562 1.47007 121.386 -48.7511 -52.112 31.7981 4.16074 15.399 104.541 50.8495 -99.3507 -3.72313 -0.480759 11.5217 -66.5626 -35.6524 117.265 -25.262 12.8514 59.1346 62.3205 9.26725 -114.217 -15.881 -7.06319 50.0749 -83.2568 6.00231 -9.85312 29.6872 21.1975 62.9257 
290.056 80.6247 -294.154 150.424 10.9122 -172.634 144.533 38.5474 -136.115 169.757 41.8699 106.89 59.0771 -16.3007 -7.65184 29.6114 19.3987 145.715 160.271 -61.5454 62.8458 -121.827 53.8495 31.2033 8.90942 2.52041 61.9623 -37.3812 25.3946 -19.9613 -5.86222 15.0474 -86.9367 -3.10852 -10.5958 4.97646 -14.7472 -10.3668 5.44128 -37.6216 -11.5958 1.52452 -17.6089 -11.5957 1.52451 121.593 -52.5339 -53.1331 27.9101 5.09201 26.0765 104.65 37.0176 -96.2783 -6.03929 -0.80478 11.2184 -65.6968 -33.2526 119.528 -26.0807 12.3491 55.1076 68.29 7.65452 -115.74 -17.1868 -7.34364 47.608 -82.2897 6.05404 -9.50675 29.1004 21.4463 64.0973 
292.604 78.0882 -297.314 149.72 13.2733 -172.024 135.373 39.3949 -134.431 176.838 36.482 101.768 59.2801 -16.5913 -10.9383 30.8617 20.6718 142.51 164.356 -66.2215 68.8101 -153.702 66.8623 52.3222 -0.451236 -4.00934 67.1753 -34.0936 21.9026 -15.691 -5.94058 15.3621 -86.8355 -3.74059 -10.7225 5.06588 -15.3787 -10.4894 5.53627 -38.2609 -11.7432 1.57041 -18.2483 -11.7432 1.57041 121.64 -56.3172 -54.311 23.5259 6.57433 38.1716 105.052 22.3264 -91.7429 -8.4097 -1.10408 10.6228 -64.9291 -31.0615 121.675 -26.9354 11.4743 50.9988 74.1629 5.33354 -116.908 -19.4141 -7.79018 44.0094 -81.2478 6.1285 -9.13801 28.4883 21.6941 65.2958 
295.418 75.6597 -300.776 148.917 15.6609 -171.321 126.46 41.0611 -132.906 -177.448 30.4895 99.3804 58.5321 -16.6523 -14.6017 31.2155 20.36 140.127 172.832 -71.2917 79.1865 -175.656 67.7857 66.4835 -3.2469 -7.99813 70.9575 -35.6146 16.1792 -1.7706 -6.0226 15.6885 -86.735 -4.39694 -10.8566 5.14721 -16.0342 -10.6198 5.62356 -38.9251 -11.8953 1.60621 -18.9125 -11.8954 1.60621 121.475 -60.0186 -55.6737 18.4291 8.222 50.5755 106.469 8.39791 -85.4748 -10.5571 -1.33532 9.86776 -64.2437 -29.0997 123.698 -27.8675 10.231 46.8667 79.7675 2.20384 -117.435 -22.7225 -8.26471 39.0582 -80.135 6.2271 -8.74956 27.8559 21.9376 66.5083 
298.446 73.5411 -304.401 148.013 18.0594 -170.51 117.964 43.3556 -131.151 -172.157 24.7293 99.3483 56.7819 -16.141 -19.1381 30.8152 18.9526 138.521 -157.867 -75.7986 110.216 172.569 61.8327 74.2922 -2.59297 -11.3827 76.0174 -34.7121 9.42972 13.4818 -6.10612 16.0257 -86.6364 -5.07575 -10.9944 5.21805 -16.7122 -10.7544 5.70051 -39.6123 -12.0478 1.63081 -19.5996 -12.0478 1.63081 121.039 -63.5634 -57.2611 12.7277 9.53003 62.1217 109.276 -3.0488 -79.9234 -12.2676 -1.48269 9.10415 -63.6239 -27.3738 125.6 -28.9189 8.65037 42.7627 85.0261 -1.82041 -116.97 -27.24 -8.50092 32.5153 -78.9548 6.35077 -8.345 27.2083 22.1737 67.7223 
301.512 72.1407 -307.865 147.007 20.4543 -169.57 110.054 45.9257 -128.505 -166.536 20.3276 102.1 54.0035 -14.7994 -25.2668 29.8227 16.7488 137.564 -101.2 -44.5593 170.053 174.404 8.07734 65.963 -9.52818 -0.255831 88.8187 -37.3952 4.83237 24.3492 -6.18817 16.373 -86.5416 -5.77582 -11.1303 5.27594 -17.4114 -10.8876 5.76447 -40.3208 -12.1946 1.6436 -20.3081 -12.1946 1.64359 120.257 -66.8877 -59.1313 6.8518 10.2344 72.0564 113.303 -12.9839 -73.1539 -13.5022 -1.56104 8.43153 -63.0547 -25.8804 127.383 -30.1265 6.79026 38.7292 90.014 -6.78587 -115.093 -32.9877 -8.05441 24.1573 -77.7114 6.50018 -7.92959 26.5505 22.3996 68.9257 
304.753 70.3915 -311.629 145.902 22.8317 -168.478 102.318 48.46 -125.998 -164.899 16.1023 106.124 51.5534 -14.3691 -28.3736 28.3559 13.885 137.114 98.7804 30.6522 -7.26198 144.378 -18.9059 -65.454 176.296 -35.956 -101.169 -41.3936 -0.711184 35.6725 -6.26472 16.7299 -86.4523 -6.49603 -11.2567 5.31855 -18.1307 -11.012 5.81275 -41.049 -12.3277 1.6447 -21.0364 -12.3277 1.64469 119.04 -69.9428 -61.3656 1.25616 10.371 80.1874 117.929 -19.4526 -66.3252 -14.3522 -1.59584 7.87941 -62.5227 -24.6095 129.052 -31.5172 4.73128 34.797 95.0379 -12.5817 -111.362 -39.6904 -6.31455 13.9244 -76.4085 6.67562 -7.51001 25.8875 22.6125 70.1077 
308.175 68.388 -315.711 144.704 25.177 -167.209 94.9304 50.917 -123.685 -171.543 9.69549 111.118 50.6966 -18.2332 -24.5228 26.4828 10.3832 137.031 79.8067 -24.7335 -9.62404 -15.8597 55.725 -119.978 0.144475 1.56171 78.303 -25.4074 -3.95621 49.7782 -6.33044 17.0957 -86.3705 -7.23518 -11.3636 5.34367 -18.869 -11.1177 5.8427 -41.7951 -12.437 1.63518 -21.7825 -12.437 1.63519 117.277 -72.6954 -64.0693 -3.77383 10.0986 86.6404 122.686 -23.8404 -60.0026 -14.9299 -1.60661 7.43949 -62.0166 -23.5487 130.617 -33.103 2.56842 30.9841 100.659 -18.7299 -105.397 -46.5525 -2.7151 2.10455 -75.0498 6.87683 -7.09428 25.2239 22.8102 71.2585 
311.498 66.9337 -319.525 143.428 27.4719 -165.733 88.1173 53.0275 -120.607 178.868 1.43897 116.176 51.1735 -24.3959 -18.2767 24.2318 6.19574 137.172 66.1095 -36.7154 -20.2844 -15.5651 66.75 -109.182 3.55235 3.53716 94.2001 -17.0937 -4.30033 58.2912 -6.37856 17.4692 -86.2987 -7.99103 -11.4382 5.34935 -19.6242 -11.192 5.85176 -42.556 -12.5097 1.61717 -22.5433 -12.5097 1.61717 114.834 -75.1241 -67.3756 -8.12355 9.62791 91.6944 127.171 -26.6707 -54.3697 -15.3221 -1.60505 7.09254 -61.5267 -22.6846 132.083 -34.8794 0.403574 27.2984 107.516 -24.294 -97.1423 -52.2986 2.84217 -10.6613 -73.6395 7.10289 -6.69171 24.5645 22.9904 72.3695 
